<?xml version="1.0" encoding="utf-8"?>
<!-- Generator: Adobe Illustrator 17.0.0, SVG Export Plug-In . SVG Version: 6.00 Build 0)  -->
<!DOCTYPE svg PUBLIC "-//W3C//DTD SVG 1.1//EN" "http://www.w3.org/Graphics/SVG/1.1/DTD/svg11.dtd">
<svg version="1.1" id="twifreeca" xmlns="http://www.w3.org/2000/svg" xmlns:xlink="http://www.w3.org/1999/xlink" x="0px" y="0px"
     width="400px" height="400px" viewBox="0 0 400 400" enable-background="new 0 0 400 400" xml:space="preserve">
    <rect id="background" fill="#FFFFFF" width="400" height="400"/>
    <g id="logo">
        <path id="v_v" fill="#9147FF" d="M364.576,298.747 L364.576,333.61 354.811,343.374 338.077,343.374 328.312,333.61 
			328.312,298.747 335.985,298.747 343.657,298.747 343.657,328.036 349.236,328.036 349.236,298.747 356.907,298.747 Z     ">
			<animate attributeType="XML" attributeName="fill" from="#9147FF" to="#0545B1" begin="background.mouseover" dur="0.1s" fill="freeze"></animate>
            <animate attributeType="XML" attributeName="d"
                from="M364.576,298.747 L364.576,333.61 354.811,343.374 338.077,343.374 328.312,333.61 
				328.312,298.747 335.985,298.747 343.657,298.747 343.657,328.036 349.236,328.036 349.236,298.747 356.907,298.747 Z"
                to="M361.611,288.313c-3.237-2.178-7.81-1.05-10.205,2.525l-13.017,17.494l-4.729-10.11
				c-0.868-1.901-4.616-2.803-6.604-1.883c-1.987,0.92-3.219,3.774-2.343,5.675l8.608,19.776
				c0.677,1.44,2.204,2.603,4.625,3.219c1.678,0.321,3.371,0.126,4.883-0.504
				c1.512-0.63,2.842-1.696,3.794-3.114l16.487-22.657
				C365.56,295.134,364.857,290.482,361.611,288.313Z"
                begin="background.mouseover" dur="0.1s" fill="freeze"></animate>
			<animate attributeType="XML" attributeName="fill" from="#0545B1" to="#9147FF" begin="background.mouseout" dur="0.1s" fill="freeze"></animate>
			<animate attributeType="XML" attributeName="d"
                from="M361.611,288.313c-3.237-2.178-7.81-1.05-10.205,2.525l-13.017,17.494l-4.729-10.11
				c-0.868-1.901-4.616-2.803-6.604-1.883c-1.987,0.92-3.219,3.774-2.343,5.675l8.608,19.776
				c0.677,1.44,2.204,2.603,4.625,3.219c1.678,0.321,3.371,0.126,4.883-0.504
				c1.512-0.63,2.842-1.696,3.794-3.114l16.487-22.657
				C365.56,295.134,364.857,290.482,361.611,288.313Z"
                to="M364.576,298.747 L364.576,333.61 354.811,343.374 338.077,343.374 328.312,333.61 
				328.312,298.747 335.985,298.747 343.657,298.747 343.657,328.036 349.236,328.036 349.236,298.747 356.907,298.747 Z"
                begin="background.mouseout" dur="0.1s" fill="freeze"></animate>
        </path>
        <path id="t3_t" fill="#9147FF" d="M322.737,298.746 310.185,298.746 310.185,286.191 294.843,286.191 294.843,333.611
			304.606,343.377 322.737,343.377 322.737,328.036 310.185,328.036 310.185,314.085 322.737,314.085     ">
			<animate attributeType="XML" attributeName="fill" from="#9147FF" to="#0545B1" begin="background.mouseover" dur="0.1s" fill="freeze"></animate>
            <animate attributeType="XML" attributeName="d"
                from="M322.737,298.746 310.185,298.746 310.185,286.191 294.843,286.191 294.843,333.611
				304.606,343.377 322.737,343.377 322.737,328.036 310.185,328.036 310.185,314.085 322.737,314.085"
                to="M331.327,290.83c0,0,0-3.749-4.964-3.749H291.94c-4.972,0-4.972,3.636-4.972,3.636s0,3.601,4.651,3.601
				h7.202c3.098,0,3.098,2.352,3.098,2.352v22.197c0,3.644,2.968,6.43,7.09,6.43s7.402-2.785,7.402-6.161v-22.501
				c0.052-0.513,0.443-2.213,3.08-2.213h7.194C331.327,294.422,331.327,290.83,331.327,290.83L331.327,290.83z"
                begin="background.mouseover" dur="0.1s" fill="freeze"></animate>
			<animate attributeType="XML" attributeName="fill" from="#0545B1" to="#9147FF" begin="background.mouseout" dur="0.1s" fill="freeze"></animate>
			<animate attributeType="XML" attributeName="d"
                from="M331.327,290.83c0,0,0-3.749-4.964-3.749H291.94c-4.972,0-4.972,3.636-4.972,3.636s0,3.601,4.651,3.601
				h7.202c3.098,0,3.098,2.352,3.098,2.352v22.197c0,3.644,2.968,6.43,7.09,6.43s7.402-2.785,7.402-6.161v-22.501
				c0.052-0.513,0.443-2.213,3.08-2.213h7.194C331.327,294.422,331.327,290.83,331.327,290.83L331.327,290.83z"
                to="M322.737,298.746 310.185,298.746 310.185,286.191 294.843,286.191 294.843,333.611
				304.606,343.377 322.737,343.377 322.737,328.036 310.185,328.036 310.185,314.085 322.737,314.085"
                begin="background.mouseout" dur="0.1s" fill="freeze"></animate>
        </path>
		<path id="dot_a" fill="#9147FF" d="M273.925,328.034h15.341v15.341h-15.341z     ">
			<animate attributeType="XML" attributeName="fill" from="#9147FF" to="#0545B1" begin="background.mouseover" dur="0.1s" fill="freeze"></animate>
            <animate attributeType="XML" attributeName="d"
                from="M273.925,328.034h15.341v15.341h-15.341z"
                to="M292.851,312.61v24.514c0,3.905-3.766,7.133-8.382,7.133H270.49
				c-13.789,0-13.789-11.099-13.789-11.099v-5.493c0,0,0.868-10.031,13.779-9.979h5.91v-5.025c0,0,0-2.603-3.245-2.603h-7.498
				c-2.742,0-5.398-1.614-5.398-3.93c0-2.317,2.517-4.538,5.206-4.538H279.6C292.851,301.694,292.851,312.61,292.851,312.61
				L292.851,312.61z M269.821,335.848h6.551v-9.779h-6.551c-3.576,0-3.228,4.886-3.228,4.886S266.245,335.848,269.821,335.848z"
                begin="background.mouseover" dur="0.1s" fill="freeze"></animate>
			<animate attributeType="XML" attributeName="fill" from="#0545B1" to="#9147FF" begin="background.mouseout" dur="0.1s" fill="freeze"></animate>
			<animate attributeType="XML" attributeName="d"
                from="M292.851,312.61v24.514c0,3.905-3.766,7.133-8.382,7.133H270.49
				c-13.789,0-13.789-11.099-13.789-11.099v-5.493c0,0,0.868-10.031,13.779-9.979h5.91v-5.025c0,0,0-2.603-3.245-2.603h-7.498
				c-2.742,0-5.398-1.614-5.398-3.93c0-2.317,2.517-4.538,5.206-4.538H279.6C292.851,301.694,292.851,312.61,292.851,312.61
				L292.851,312.61z M269.821,335.848h6.551v-9.779h-6.551c-3.576,0-3.228,4.886-3.228,4.886S266.245,335.848,269.821,335.848z"
                to="M273.925,328.034h15.341v15.341h-15.341z"
                begin="background.mouseout" dur="0.1s" fill="freeze"></animate>
        </path>
		<path id="h_c" fill="#9147FF" d="M268.348,308.507 258.586,298.746 240.452,298.746 240.452,286.191 225.106,286.191 
			225.106,343.377 240.452,343.377 240.452,314.085 253.003,314.085 253.003,343.377 268.348,343.377     ">
			<animate attributeType="XML" attributeName="fill" from="#9147FF" to="#0545B1" begin="background.mouseover" dur="0.1s" fill="freeze"></animate>
            <animate attributeType="XML" attributeName="d"
                from="M268.348,308.507 258.586,298.746 240.452,298.746 240.452,286.191 225.106,286.191 
				225.106,343.377 240.452,343.377 240.452,314.085 253.003,314.085 253.003,343.377 268.348,343.377"
                to="M250.166,335.979c2.742-0.069,5.206,2.066,5.206,4.382c0,2.317-2.456,3.896-5.206,3.896h-21.555
				c-4.538,0-7.81-2.742-7.81-6.63v-29.044c0-3.844,3.74-7.003,8.287-7.003h21.911c2.76,0,4.911,1.831,4.911,4.131
				c0,2.299-2.152,4.027-4.911,4.027h-11.654c-0.974-0.125-1.866,0.564-1.99,1.538c-0.008,0.065-0.013,0.131-0.014,0.197v22.726
				c0,0-0.138,1.735,2.021,1.735L250.166,335.979z"
                begin="background.mouseover" dur="0.1s" fill="freeze"></animate>
			<animate attributeType="XML" attributeName="fill" from="#0545B1" to="#9147FF" begin="background.mouseout" dur="0.1s" fill="freeze"></animate>
			<animate attributeType="XML" attributeName="d"
                from="M250.166,335.979c2.742-0.069,5.206,2.066,5.206,4.382c0,2.317-2.456,3.896-5.206,3.896h-21.555
				c-4.538,0-7.81-2.742-7.81-6.63v-29.044c0-3.844,3.74-7.003,8.287-7.003h21.911c2.76,0,4.911,1.831,4.911,4.131
				c0,2.299-2.152,4.027-4.911,4.027h-11.654c-0.974-0.125-1.866,0.564-1.99,1.538c-0.008,0.065-0.013,0.131-0.014,0.197v22.726
				c0,0-0.138,1.735,2.021,1.735L250.166,335.979z"
                to="M268.348,308.507 258.586,298.746 240.452,298.746 240.452,286.191 225.106,286.191 
				225.106,343.377 240.452,343.377 240.452,314.085 253.003,314.085 253.003,343.377 268.348,343.377"
                begin="background.mouseout" dur="0.1s" fill="freeze"></animate>
        </path>
		<path id="c_e2" fill="#9147FF" d="M219.531,298.746 195.82,298.746 186.056,308.507 186.056,333.611 195.82,343.377 
			219.531,343.377 219.531,328.036 201.397,328.036 201.397,314.085 219.531,314.085     ">
			<animate attributeType="XML" attributeName="fill" from="#9147FF" to="#0545B1" begin="background.mouseover" dur="0.1s" fill="freeze"></animate>
            <animate attributeType="XML" attributeName="d"
                from="M219.531,298.746 195.82,298.746 186.056,308.507 186.056,333.611 195.82,343.377 
				219.531,343.377 219.531,328.036 201.397,328.036 201.397,314.085 219.531,314.085"
                to="M201.65,301.581c13.841,0,13.841,11.116,13.841,11.116v11.558c0,2.317-2.248,4.017-4.981,4.017
				h-15.264v4.946c0,0,0.156,2.603,3.679,2.603h8.556c2.751,0,4.911,1.831,4.911,4.148c0,2.317-2.23,4.339-4.911,4.339h-14.995
				c-13.198,0-13.198-10.969-13.198-10.969v-20.644c0,0,0.104-10.994,13.294-11.116H201.65L201.65,301.581z M198.995,310.259
				c-3.592,0-3.592,2.603-3.592,2.603v7.159h10.213v-6.942c0,0,0-2.803-3.237-2.803L198.995,310.259z"
                begin="background.mouseover" dur="0.1s" fill="freeze"></animate>
			<animate attributeType="XML" attributeName="fill" from="#0545B1" to="#9147FF" begin="background.mouseout" dur="0.1s" fill="freeze"></animate>
			<animate attributeType="XML" attributeName="d"
                from="M201.65,301.581c13.841,0,13.841,11.116,13.841,11.116v11.558c0,2.317-2.248,4.017-4.981,4.017
				h-15.264v4.946c0,0,0.156,2.603,3.679,2.603h8.556c2.751,0,4.911,1.831,4.911,4.148c0,2.317-2.23,4.339-4.911,4.339h-14.995
				c-13.198,0-13.198-10.969-13.198-10.969v-20.644c0,0,0.104-10.994,13.294-11.116H201.65L201.65,301.581z M198.995,310.259
				c-3.592,0-3.592,2.603-3.592,2.603v7.159h10.213v-6.942c0,0,0-2.803-3.237-2.803L198.995,310.259z"
                to="M219.531,298.746 195.82,298.746 186.056,308.507 186.056,333.611 195.82,343.377 
				219.531,343.377 219.531,328.036 201.397,328.036 201.397,314.085 219.531,314.085"
                begin="background.mouseout" dur="0.1s" fill="freeze"></animate>
        </path>
		<path id="t2_e1" fill="#9147FF" d="M180.477,298.746 167.926,298.746 167.926,286.191 152.581,286.191 152.581,333.611
			162.345,343.377 180.477,343.377 180.477,328.036 167.926,328.036 167.926,314.085 180.477,314.085 180.477,298.746     ">
			<animate attributeType="XML" attributeName="fill" from="#9147FF" to="#0545B1" begin="background.mouseover" dur="0.1s" fill="freeze"></animate>
            <animate attributeType="XML" attributeName="d"
                from="M180.477,298.746 167.926,298.746 167.926,286.191 152.581,286.191 152.581,333.611
				162.345,343.377 180.477,343.377 180.477,328.036 167.926,328.036 167.926,314.085 180.477,314.085 180.477,298.746"
                to="M160.163,301.581c13.841,0,13.841,11.116,13.841,11.116v11.558c0,2.317-2.248,4.017-4.981,4.017
				h-15.255v4.946c0,0,0.148,2.603,3.671,2.603h8.556c2.751,0,4.911,1.831,4.911,4.148c0,2.317-2.23,4.339-4.911,4.339h-15.03
				c-13.198,0-13.198-10.969-13.198-10.969v-20.644c0,0,0.104-10.994,13.294-11.116H160.163L160.163,301.581z M157.508,310.259
				c-3.592,0-3.592,2.603-3.592,2.603v7.159h10.213v-6.942c0,0,0-2.803-3.237-2.803L157.508,310.259z"
                begin="background.mouseover" dur="0.1s" fill="freeze"></animate>
			<animate attributeType="XML" attributeName="fill" from="#0545B1" to="#9147FF" begin="background.mouseout" dur="0.1s" fill="freeze"></animate>
			<animate attributeType="XML" attributeName="d"
                from="M160.163,301.581c13.841,0,13.841,11.116,13.841,11.116v11.558c0,2.317-2.248,4.017-4.981,4.017
				h-15.255v4.946c0,0,0.148,2.603,3.671,2.603h8.556c2.751,0,4.911,1.831,4.911,4.148c0,2.317-2.23,4.339-4.911,4.339h-15.03
				c-13.198,0-13.198-10.969-13.198-10.969v-20.644c0,0,0.104-10.994,13.294-11.116H160.163L160.163,301.581z M157.508,310.259
				c-3.592,0-3.592,2.603-3.592,2.603v7.159h10.213v-6.942c0,0,0-2.803-3.237-2.803L157.508,310.259z"
                to="M180.477,298.746 167.926,298.746 167.926,286.191 152.581,286.191 152.581,333.611
				162.345,343.377 180.477,343.377 180.477,328.036 167.926,328.036 167.926,314.085 180.477,314.085 180.477,298.746"
                begin="background.mouseout" dur="0.1s" fill="freeze"></animate>
        </path>
		<path id="i_r" fill="#9147FF" d="M147.002,298.746h-15.341v44.63h15.341V298.746z M147.002,286.191h-15.341v6.976h15.341V286.191z     ">
			<animate attributeType="XML" attributeName="fill" from="#9147FF" to="#0545B1" begin="background.mouseover" dur="0.1s" fill="freeze"></animate>
            <animate attributeType="XML" attributeName="d"
                from="M147.002,298.746h-15.341v44.63h15.341V298.746z M147.002,286.191h-15.341v6.976h15.341V286.191z"
                to="M122.902,336.951c0,4.148-3.323,7.307-7.923,7.307c-4.599,0-8.287-3.158-8.287-6.985v-24.566
				c0,0,0-10.83,13.39-10.83h10.604c5.554,0,5.554,4.252,5.554,4.252s0,4.087-5.206,4.087h-4.668c-3.471,0-3.471,2.682-3.471,2.682
				L122.902,336.951z"
                begin="background.mouseover" dur="0.1s" fill="freeze"></animate>
			<animate attributeType="XML" attributeName="fill" from="#0545B1" to="#9147FF" begin="background.mouseout" dur="0.1s" fill="freeze"></animate>
			<animate attributeType="XML" attributeName="d"
                from="M122.902,336.951c0,4.148-3.323,7.307-7.923,7.307c-4.599,0-8.287-3.158-8.287-6.985v-24.566
				c0,0,0-10.83,13.39-10.83h10.604c5.554,0,5.554,4.252,5.554,4.252s0,4.087-5.206,4.087h-4.668c-3.471,0-3.471,2.682-3.471,2.682
				L122.902,336.951z"
                to="M147.002,298.746h-15.341v44.63h15.341V298.746z M147.002,286.191h-15.341v6.976h15.341V286.191z"
                begin="background.mouseout" dur="0.1s" fill="freeze"></animate>
        </path>
		<path id="w_f" fill="#9147FF" d="M126.082,298.746 110.74,298.746 110.74,328.036 105.162,328.036 105.162,298.746 89.819,298.746
			89.819,328.036 84.242,328.036 84.242,298.746 68.897,298.746 68.897,343.377 116.32,343.377 126.082,333.611 126.082,298.746     ">
			<animate attributeType="XML" attributeName="fill" from="#9147FF" to="#0545B1" begin="background.mouseover" dur="0.1s" fill="freeze"></animate>
            <animate attributeType="XML" attributeName="d"
                from="M126.082,298.746 110.74,298.746 110.74,328.036 105.162,328.036 105.162,298.746 89.819,298.746
				89.819,328.036 84.242,328.036 84.242,298.746 68.897,298.746 68.897,343.377 116.32,343.377 126.082,333.611 126.082,298.746"
                to="M77.076,296.887c0,0-0.2-11.498,13.017-11.628h12.296c2.603,0,4.886,1.848,4.886,4.113
				c0,2.265-2.239,4.165-4.886,4.165h-5.71c-3.792,0-3.471,2.76-3.471,2.76v5.397h6.89c2.734,0,4.972,1.736,4.972,4.009
				c0,2.274-1.961,4.044-4.565,4.044h-7.289v27.265c0,3.835-3.315,7.246-7.931,7.246s-8.209-3.107-8.209-6.985
				C77.076,337.272,77.076,296.887,77.076,296.887z"
                begin="background.mouseover" dur="0.1s" fill="freeze"></animate>
			<animate attributeType="XML" attributeName="fill" from="#0545B1" to="#9147FF" begin="background.mouseout" dur="0.1s" fill="freeze"></animate>
			<animate attributeType="XML" attributeName="d"
                from="M77.076,296.887c0,0-0.2-11.498,13.017-11.628h12.296c2.603,0,4.886,1.848,4.886,4.113
				c0,2.265-2.239,4.165-4.886,4.165h-5.71c-3.792,0-3.471,2.76-3.471,2.76v5.397h6.89c2.734,0,4.972,1.736,4.972,4.009
				c0,2.274-1.961,4.044-4.565,4.044h-7.289v27.265c0,3.835-3.315,7.246-7.931,7.246s-8.209-3.107-8.209-6.985
				C77.076,337.272,77.076,296.887,77.076,296.887z"
                to="M126.082,298.746 110.74,298.746 110.74,328.036 105.162,328.036 105.162,298.746 89.819,298.746
				89.819,328.036 84.242,328.036 84.242,298.746 68.897,298.746 68.897,343.377 116.32,343.377 126.082,333.611 126.082,298.746"
                begin="background.mouseout" dur="0.1s" fill="freeze"></animate>
        </path>
		<path id="t1_a1" fill="#9147FF" d="M63.318,298.746 50.766,298.746 50.766,286.191 35.424,286.191 35.424,333.611 45.187,343.377
			63.318,343.377 63.318,328.036 50.766,328.036 50.766,314.085 63.318,314.085 63.318,298.746     ">
			<animate attributeType="XML" attributeName="fill" from="#9147FF" to="#0545B1" begin="background.mouseover" dur="0.1s" fill="freeze"></animate>
            <animate attributeType="XML" attributeName="d"
                from="M63.318,298.746 50.766,298.746 50.766,286.191 35.424,286.191 35.424,333.611 45.187,343.377
				63.318,343.377 63.318,328.036 50.766,328.036 50.766,314.085 63.318,314.085 63.318,298.746"
                to="M71.592,312.593v24.532c0,3.905-3.774,7.133-8.382,7.133H49.213
				c-13.789-0.001-13.789-11.108-13.789-11.108v-5.493c0,0,0.868-10.031,13.789-9.988h5.91v-5.025c0,0,0-2.603-3.245-2.603h-7.498
				c-2.742,0-5.415-1.605-5.415-3.93s2.534-4.538,5.267-4.538h14.154C71.592,301.642,71.592,312.593,71.592,312.593z M48.544,335.84
				h6.551v-9.771h-6.551c-3.705,0-3.228,4.886-3.228,4.886S44.969,335.84,48.544,335.84z"
                begin="background.mouseover" dur="0.1s" fill="freeze"></animate>
			<animate attributeType="XML" attributeName="fill" from="#0545B1" to="#9147FF" begin="background.mouseout" dur="0.1s" fill="freeze"></animate>
			<animate attributeType="XML" attributeName="d"
                from="M71.592,312.593v24.532c0,3.905-3.774,7.133-8.382,7.133H49.213
				c-13.789-0.001-13.789-11.108-13.789-11.108v-5.493c0,0,0.868-10.031,13.789-9.988h5.91v-5.025c0,0,0-2.603-3.245-2.603h-7.498
				c-2.742,0-5.415-1.605-5.415-3.93s2.534-4.538,5.267-4.538h14.154C71.592,301.642,71.592,312.593,71.592,312.593z M48.544,335.84
				h6.551v-9.771h-6.551c-3.705,0-3.228,4.886-3.228,4.886S44.969,335.84,48.544,335.84z"
                to="M63.318,298.746 50.766,298.746 50.766,286.191 35.424,286.191 35.424,333.611 45.187,343.377
				63.318,343.377 63.318,328.036 50.766,328.036 50.766,314.085 63.318,314.085 63.318,298.746"
                begin="background.mouseout" dur="0.1s" fill="freeze"></animate>
        </path>
    </g>
    <g id="twitch_face">
        <polygon fill="#6441A5" opacity="1" points="150,60 195,60 285.714,60 285.714,160 221.429,224.286
            192.857,224.286 157.143,260 157.143,224.286 114.286,224.286 114.286,95.714     ">
            <animate attributeType="XML" attributeName="opacity" from="1" to="0" begin="background.mouseover" dur="0.1s" fill="freeze"></animate>
			<animate attributeType="XML" attributeName="opacity" from="0" to="1" begin="background.mouseout" dur="0.1s" fill="freeze"></animate>
        </polygon>
        <polygon fill="#FFFFFF" opacity="1" points="157.143,74.286 271.429,74.286 271.429,152.857 242.857,181.429 214.286,181.429
            185.714,210 185.714,181.429 157.143,181.429     ">
            <animate attributeType="XML" attributeName="opacity" from="1" to="0" begin="background.mouseover" dur="0.1s" fill="freeze"></animate>
			<animate attributeType="XML" attributeName="opacity" from="0" to="1" begin="background.mouseout" dur="0.1s" fill="freeze"></animate>
        </polygon>
        <path fill="#6441A5" opacity="1" d="M200,102.857h14.286v42.857H200V102.857z M250,102.857v42.857h-14.286v-42.857H250z    ">
            <animate attributeType="XML" attributeName="opacity" from="1" to="0" begin="background.mouseover" dur="0.1s" fill="freeze"></animate>
			<animate attributeType="XML" attributeName="opacity" from="0" to="1" begin="background.mouseout" dur="0.1s" fill="freeze"></animate>
        </path>
    </g>
	<g id="afreeca_face">
		<path fill="#0545B1" opacity="0" d="M245.328,48.902c1.479,2.978,0.264,6.591-2.715,8.07c-0.258,0.128-0.526,0.238-0.8,0.328l-36.461,16.564
			c-3.574,1.794-7.805,1.697-11.292-0.259l-23.567-11.163c-2.843-1.753-3.726-5.478-1.974-8.32c0.121-0.197,0.254-0.387,0.397-0.569
			l0,0c2.049-2.564,5.789-2.981,8.353-0.932c0.104,0.083,0.205,0.17,0.303,0.26l18.088,14.574c1.561,1.331,3.666,1.831,5.659,1.344
			c0.741-0.213,1.447-0.535,2.093-0.956l33.36-21.37c2.868-1.738,6.602-0.821,8.34,2.047
			C245.191,48.644,245.262,48.772,245.328,48.902L245.328,48.902z">
			<animate attributeType="XML" attributeName="opacity" from="0" to="1" begin="background.mouseover" dur="0.1s" fill="freeze"></animate>
			<animate attributeType="XML" attributeName="opacity" from="1" to="0" begin="background.mouseout" dur="0.1s" fill="freeze"></animate>
		</path>
		<g transform="matrix(2.4055167,0,0,2.4054836,-571.34852,0.0248348)">
			<path id="face" fill="#0545B1" opacity="0" d="M287.853,88.779c-1.555-7.712-2.325-15.562-2.299-23.429
				c-0.048-6.142,0.43-12.277,1.429-18.337c0.186-1.008,0.441-2.002,0.763-2.976c1.11-3.292,3.601-5.936,6.821-7.24
				c1.689-0.731,3.44-1.309,5.231-1.729c6.736-1.639,13.639-2.493,20.571-2.546h0.483c6.85,0.016,13.672,0.871,20.313,2.546
				c1.876,0.5,3.722,1.103,5.532,1.805c0,0,5.446,2.148,6.896,7.165c0.289,0.935,0.525,1.885,0.709,2.847
				c0.95,6.117,1.438,12.297,1.461,18.487c0.002,7.912-0.789,15.804-2.363,23.558l0,0c-0.87,4.15-4.089,7.407-8.229,8.325
				l-0.387,0.075c-7.946,1.574-16.027,2.366-24.127,2.363c-8.084,0.014-16.151-0.763-24.084-2.32l-0.537-0.107
				c-2.466-0.556-4.657-1.963-6.188-3.975C288.799,91.989,288.109,90.433,287.853,88.779z">
				<animate attributeType="XML" attributeName="opacity" from="0" to="1" begin="background.mouseover" dur="0.1s" fill="freeze"></animate>
				<animate attributeType="XML" attributeName="opacity" from="1" to="0" begin="background.mouseout" dur="0.1s" fill="freeze"></animate>
			</path>
			<path id="mouth" fill="#FFFFFF" opacity="0" d="M336.848,76.887c-7.853,7.305-24.879,7.315-32.517,0c-0.634-0.572-1.612-0.523-2.185,0.112
				c-0.545,0.604-0.529,1.527,0.036,2.112c8.819,8.422,27.715,8.433,36.749,0c0.623-0.578,0.659-1.552,0.081-2.175
				s-1.552-0.659-2.175-0.081l0,0L336.848,76.887z">
				<animate attributeType="XML" attributeName="opacity" from="0" to="1" begin="background.mouseover" dur="0.1s" fill="freeze"></animate>
				<animate attributeType="XML" attributeName="opacity" from="1" to="0" begin="background.mouseout" dur="0.1s" fill="freeze"></animate>
			</path>
			<path id="green" fill="#1AC62F" opacity="0" d="M330.575,64.717c-0.004-0.025-0.004-0.05,0-0.075v-0.462l-1.074-11.569v-0.322
				c-0.029-0.25-0.076-0.498-0.14-0.741c-0.568-2.29-2.434-4.03-4.759-4.437c-0.33-0.056-0.664-0.085-0.999-0.086h-5.94
				c-0.288,0-0.575,0.021-0.859,0.064c-2.38,0.36-4.311,2.113-4.898,4.447c0,0.193-0.086,0.397-0.118,0.591l-0.054,0.623
				l-1.074,11.494v0.269c-0.006,0.068-0.006,0.136,0,0.204c-0.005,0.075-0.005,0.15,0,0.226c0.003,2.709,1.828,5.077,4.447,5.769
				c0.494,0.134,1.003,0.203,1.515,0.204h8.067c0.328-0.001,0.655-0.03,0.978-0.086c2.873-0.487,4.978-2.972,4.984-5.887
				L330.575,64.717z">
				<animate attributeType="XML" attributeName="opacity" from="0" to="1" begin="background.mouseover" dur="0.1s" fill="freeze"></animate>
				<animate attributeType="XML" attributeName="opacity" from="1" to="0" begin="background.mouseout" dur="0.1s" fill="freeze"></animate>
			</path>
			<path id="blue" fill="#00BBED" opacity="0" d="M355.619,59.861c-0.91,0.611-1.779,1.214-2.661,1.813c-1.114,0.757-2.232,1.505-3.446,2.257
				c-2.054,1.305-4.182,2.494-6.369,3.559c-2.095,1.127-4.589,1.255-6.789,0.341c-1.891-1.118-3.101-3.11-3.226-5.305
				c0,0-0.308-2.997-0.449-7.52c-0.075-2.752-0.108-5.458,0-8.173c-0.037-2.083,1.014-4.032,2.773-5.147
				c1.912-1.106,4.244-1.222,6.261-0.312c3.222,1.43,7.325,3.621,7.325,3.621c1.908,1.035,3.571,1.937,5.446,3.093
				C355.054,51.992,355.432,55.92,355.619,59.861z">
				<animate attributeType="XML" attributeName="opacity" from="0" to="1" begin="background.mouseover" dur="0.1s" fill="freeze"></animate>
				<animate attributeType="XML" attributeName="opacity" from="1" to="0" begin="background.mouseout" dur="0.1s" fill="freeze"></animate>
			</path>
			<path id="pink" fill="#F2338A" opacity="0" d="M308.232,58.348c-2.291,7.637-9.133,11.524-16.695,10.214
				c-2.224-0.382-4.278-1.551-5.982-3.184v-0.029c-0.05-6.14,0.428-12.276,1.426-18.337c0.187-1.006,0.441-2,0.765-2.972
				c0.133-0.395,0.287-0.777,0.457-1.152c3.455-2.033,7.67-2.852,11.981-1.526C308.295,43.889,310.54,50.632,308.232,58.348z">
				<animate attributeType="XML" attributeName="opacity" from="0" to="1" begin="background.mouseover" dur="0.1s" fill="freeze"></animate>
				<animate attributeType="XML" attributeName="opacity" from="1" to="0" begin="background.mouseout" dur="0.1s" fill="freeze"></animate>
			</path>
			<circle id="right_eye" fill="#1A1919" opacity="0" cx="343.67" cy="54.694" r="5.038">
				<animate attributeType="XML" attributeName="opacity" from="0" to="1" begin="background.mouseover" dur="0.1s" fill="freeze"></animate>
				<animate attributeType="XML" attributeName="opacity" from="1" to="0" begin="background.mouseout" dur="0.1s" fill="freeze"></animate>
			</circle>
			<circle id="left_eye" fill="#1A1919" opacity="0" cx="296.791" cy="54.694" r="5.038">
				<animate attributeType="XML" attributeName="opacity" from="0" to="1" begin="background.mouseover" dur="0.1s" fill="freeze"></animate>
				<animate attributeType="XML" attributeName="opacity" from="1" to="0" begin="background.mouseout" dur="0.1s" fill="freeze"></animate>
			</circle>
		</g>
	</g>
</svg>